<svg width="16" height="17" viewBox="0 0 16 17" fill="none" xmlns="http://www.w3.org/2000/svg">
<path fill-rule="evenodd" clip-rule="evenodd" d="M9.2688 13.9032H10.8136C10.8136 14.9794 10.2827 15.9695 9.33662 16.5468C8.34644 17.1511 7.10156 17.1511 6.11138 16.5468C5.07414 15.9138 4.6344 15.1852 4.6344 13.9032H6.1792C6.1792 14.6272 6.3237 14.8667 6.91608 15.2282C7.41216 15.5309 8.03584 15.5309 8.53192 15.2282C9.00837 14.9374 9.2688 14.4518 9.2688 13.9032Z" fill="white"/>
<path fill-rule="evenodd" clip-rule="evenodd" d="M6.2082 1.8438C6.10878 1.33778 6.26566 0.795314 6.66621 0.418973C7.26077 -0.139658 8.18723 -0.139658 8.78179 0.418973C9.18279 0.795735 9.33957 1.33899 9.23946 1.8455C8.72313 1.6477 8.20101 1.55436 7.724 1.55436C7.24689 1.55436 6.72464 1.64694 6.2082 1.8438Z" fill="white"/>
<path fill-rule="evenodd" clip-rule="evenodd" d="M15 13.5182C14.7389 13.283 14.3443 12.9229 14.1602 12.7259C12.9927 11.4768 12.375 9.79512 12.375 7.13162C12.375 3.90169 10.3272 2 8 2C5.66617 2 3.625 3.89192 3.625 7.13162C3.625 9.80369 3.00744 11.4849 1.83868 12.7304C1.65488 12.9263 1.25906 13.2861 1 13.5186L1 14H15V13.5182Z" stroke="white" stroke-width="1.5"/>
</svg>
