
<svg version="1.1" width="512" height="512" x="0" y="0" viewBox="0 0 512.54 512.54" style="enable-background:new 0 0 512 512" xml:space="preserve" class=""><g><path xmlns="http://www.w3.org/2000/svg" d="m482.128 318.124c-29.812-29.812-73.777-37.048-110.468-21.721v-176.763c0-7.314-2.848-14.19-8.019-19.361l-92.25-92.261c-2.159-2.158-4.672-3.921-7.398-5.243-.006-.003-.012-.006-.018-.009-.125-.061-.25-.123-.376-.181-.239-.117-.482-.226-.731-.323-3.407-1.469-7.106-2.262-10.848-2.262h-222.25c-15.957 0-28.94 12.982-28.94 28.94v454.66c0 15.958 12.982 28.94 28.939 28.94h312.95c15.28 0 27.971-11.946 28.892-27.197.013-.201.019-.402.019-.603v-2.073c12.467 5.213 25.772 7.826 39.08 7.826 25.864 0 51.728-9.845 71.418-29.534 19.076-19.077 29.582-44.44 29.582-71.418s-10.506-52.341-29.582-71.417zm-144.61-215.685h-66.082c-1.22 0-2.213-.993-2.213-2.213v-66.089zm14.112 381.944c-.403 4.594-4.271 8.157-8.91 8.157h-312.95c-4.93 0-8.939-4.01-8.939-8.94v-454.66c0-4.93 4.01-8.94 8.939-8.94h219.454v80.226c0 12.248 9.965 22.213 22.213 22.213h80.224v185.16c-4.332 3.125-8.472 6.629-12.368 10.525-19.076 19.077-29.582 44.44-29.582 71.418s10.506 52.341 29.582 71.418c3.887 3.887 8.017 7.384 12.338 10.503v12.92zm116.355-37.566c-31.582 31.582-82.969 31.582-114.551 0-15.299-15.299-23.725-35.64-23.725-57.275s8.426-41.977 23.725-57.275c15.791-15.791 36.533-23.687 57.275-23.687s41.484 7.896 57.275 23.687c15.299 15.299 23.725 35.64 23.725 57.275s-8.425 41.976-23.724 57.275z" fill="#ff2a2a" data-original="#000000" style="" class=""/><path xmlns="http://www.w3.org/2000/svg" d="m71.297 159.38h139.413c5.522 0 10-4.477 10-10s-4.478-10-10-10h-139.413c-5.522 0-10 4.477-10 10s4.477 10 10 10z" fill="#ff2a2a" data-original="#000000" style="" class=""/><path xmlns="http://www.w3.org/2000/svg" d="m245.481 319.298h-174.184c-5.522 0-10 4.477-10 10s4.478 10 10 10h174.185c5.522 0 10-4.477 10-10s-4.478-10-10.001-10z" fill="#ff2a2a" data-original="#000000" style="" class=""/><path xmlns="http://www.w3.org/2000/svg" d="m245.481 379.271h-174.184c-5.522 0-10 4.477-10 10s4.478 10 10 10h174.185c5.522 0 10-4.477 10-10s-4.478-10-10.001-10z" fill="#ff2a2a" data-original="#000000" style="" class=""/><path xmlns="http://www.w3.org/2000/svg" d="m301.71 259.326h-230.413c-5.522 0-10 4.477-10 10s4.478 10 10 10h230.413c5.522 0 10-4.477 10-10s-4.478-10-10-10z" fill="#ff2a2a" data-original="#000000" style="" class=""/><path xmlns="http://www.w3.org/2000/svg" d="m70.297 220h180.413c5.522 0 10-4.477 10-10s-4.478-10-10-10h-180.413c-5.522 0-10 4.477-10 10s4.477 10 10 10z" fill="#ff2a2a" data-original="#000000" style="" class=""/><circle xmlns="http://www.w3.org/2000/svg" cx="300.477" cy="210" r="10.005" fill="#ff2a2a" data-original="#000000" style="" class=""/><path xmlns="http://www.w3.org/2000/svg" d="m446.072 354.18c-3.905-3.905-10.235-3.905-14.143 0l-21.22 21.219-20.885-20.885c-3.905-3.905-10.237-3.905-14.143 0-3.905 3.905-3.905 10.237 0 14.142l20.885 20.885-21.22 21.22c-3.905 3.905-3.905 10.237 0 14.142 1.953 1.953 4.512 2.929 7.071 2.929s5.118-.977 7.071-2.929l21.22-21.219 20.885 20.885c1.953 1.953 4.512 2.929 7.071 2.929s5.119-.977 7.071-2.929c3.905-3.905 3.905-10.237 0-14.142l-20.885-20.885 21.22-21.219c3.908-3.906 3.908-10.238.002-14.143z" fill="#ff2a2a" data-original="#000000" style="" class=""/></g></svg>
