<svg  enable-background="new 0 0 512 512" height="512" viewBox="0 0 512 512" width="512"><g><g><g><g><path d="m358.179 504.511h-278.827c-8.356 0-15.129-6.774-15.129-15.129v-400.76c0-8.356 6.774-15.129 15.129-15.129h278.826c8.356 0 15.129 6.774 15.129 15.129v400.76c.001 8.356-6.772 15.129-15.128 15.129z" fill="#faf7f7"/></g><g><path d="m373.305 88.619v400.763c0 8.358-6.77 15.128-15.128 15.128h-19.97c8.358 0 15.128-6.77 15.128-15.128v-400.763c0-8.348-6.77-15.128-15.128-15.128h19.97c8.358 0 15.128 6.78 15.128 15.128z" fill="#ede1dd"/></g><g><path d="m248.612 48.526v-10.914c0-16.637-13.363-30.123-29.847-30.123-16.484 0-29.847 13.487-29.847 30.123v10.914h-38.368c-3.312 0-5.997 2.71-5.997 6.052v37.829c0 3.343 2.685 6.052 5.997 6.052h136.43c3.312 0 5.997-2.71 5.997-6.052v-37.828c0-3.343-2.685-6.052-5.997-6.052h-38.368z" fill="#8d9ca8"/></g><g><path d="m248.611 37.615v10.914h-9.057c-6.027 0-10.914-4.886-10.914-10.914 0-13.1-8.288-24.254-19.86-28.388 3.115-1.128 6.48-1.737 9.985-1.737 16.486 0 29.846 13.49 29.846 30.125z" fill="#7a8c98"/></g><g><path d="m292.975 54.58v37.824c0 3.345-2.686 6.051-5.991 6.051h-19.97c3.305 0 5.991-2.706 5.991-6.051v-37.824c0-3.345-2.686-6.051-5.991-6.051h19.97c3.305 0 5.991 2.706 5.991 6.051z" fill="#7a8c98"/></g></g></g><g><circle cx="361.821" cy="418.556" fill="#fe646f" r="85.955"/></g><g><path d="m447.776 418.56c0 47.472-38.478 85.949-85.96 85.949-19.182 0-36.887-6.28-51.193-16.895 9.71 3.795 20.284 5.885 31.336 5.885 47.471 0 85.95-38.489 85.95-85.96 0-28.289-13.672-53.387-34.756-69.055 31.979 12.529 54.623 43.656 54.623 80.076z" fill="#fd4755"/></g><g><path d="m380.286 418.556 19.325-19.325c5.099-5.099 5.099-13.366 0-18.465s-13.366-5.099-18.465 0l-19.325 19.325-19.325-19.325c-5.099-5.099-13.366-5.099-18.465 0s-5.099 13.366 0 18.465l19.325 19.325-19.325 19.325c-5.099 5.099-5.099 13.366 0 18.465 2.549 2.55 5.891 3.824 9.232 3.824s6.683-1.275 9.232-3.824l19.325-19.325 19.325 19.325c2.549 2.55 5.891 3.824 9.232 3.824s6.683-1.275 9.232-3.824c5.099-5.099 5.099-13.366 0-18.465z" fill="#faf7f7"/></g><g><path d="m399.608 437.879c5.103 5.103 5.103 13.37 0 18.463-2.546 2.556-5.891 3.824-9.226 3.824-3.345 0-6.69-1.268-9.236-3.824l-.07-.07c5.033-5.092 5.013-13.31-.06-18.393l-14.741-14.733c-2.535-2.534-2.536-6.643-.001-9.178l14.742-14.742c5.072-5.073 5.092-13.29.06-18.393l.07-.07c5.103-5.103 13.37-5.103 18.462 0 5.103 5.103 5.103 13.37 0 18.462l-19.321 19.331z" fill="#ede1dd"/></g><g><path d="m109.431 329.02h22.258c4.136 0 7.489-3.353 7.489-7.489s-3.353-7.489-7.489-7.489h-22.258c-4.136 0-7.489 3.353-7.489 7.489s3.353 7.489 7.489 7.489z"/><path d="m174.269 329.02h114.612c4.136 0 7.489-3.353 7.489-7.489s-3.353-7.489-7.489-7.489h-114.612c-4.136 0-7.489 3.353-7.489 7.489s3.353 7.489 7.489 7.489z"/><g><path d="m410.925 389.998c0-5.488-2.137-10.648-6.017-14.528-3.881-3.881-9.041-6.018-14.528-6.018s-10.647 2.137-14.528 6.018l-14.029 14.03-14.03-14.03c-3.881-3.881-9.04-6.018-14.528-6.018s-10.647 2.137-14.527 6.017c-3.881 3.88-6.018 9.04-6.018 14.528s2.137 10.648 6.017 14.528l14.031 14.03-14.03 14.03c-3.881 3.88-6.018 9.04-6.018 14.528s2.137 10.648 6.016 14.527c3.88 3.881 9.04 6.019 14.529 6.019s10.649-2.137 14.527-6.018l14.031-14.03 14.028 14.029c3.88 3.881 9.04 6.019 14.529 6.019s10.649-2.137 14.527-6.017c3.881-3.88 6.018-9.04 6.018-14.528s-2.137-10.647-6.017-14.527l-14.031-14.03 14.03-14.029c3.88-3.882 6.018-9.042 6.018-14.53zm-16.61 3.937-19.325 19.325c-1.404 1.404-2.193 3.309-2.193 5.295s.789 3.891 2.193 5.295l19.327 19.326c1.052 1.052 1.63 2.449 1.63 3.936 0 3.033-2.548 5.568-5.568 5.568-1.487 0-2.885-.579-3.936-1.631l-19.325-19.325c-1.405-1.405-3.31-2.193-5.296-2.193s-3.891.789-5.296 2.193l-19.327 19.326c-3.402 3.406-9.504.881-9.503-3.939 0-1.486.579-2.884 1.631-3.936l19.326-19.326c1.404-1.404 2.193-3.309 2.193-5.295s-.789-3.891-2.193-5.295l-19.327-19.326c-1.052-1.052-1.63-2.45-1.63-3.937 0-3.094 2.51-5.568 5.568-5.568 1.487 0 2.885.579 3.938 1.631l19.325 19.325c1.405 1.405 3.309 2.194 5.296 2.194s3.891-.789 5.296-2.194l19.325-19.325c5.172-5.174 13.276 2.477 7.871 7.876z"/><path d="m380.796 327.049v-238.427c0-12.472-10.146-22.618-22.618-22.618h-57.713v-11.425c0-7.467-6.05-13.541-13.486-13.541h-30.879v-3.425c.002-20.74-16.747-37.613-37.335-37.613-20.586 0-37.335 16.873-37.335 37.612v3.425h-30.88c-7.435 0-13.485 6.074-13.485 13.541v11.425h-57.713c-12.472 0-22.618 10.146-22.618 22.618v75.764c0 4.136 3.352 7.489 7.489 7.489 4.136 0 7.489-3.353 7.489-7.489v-75.763c0-4.213 3.427-7.64 7.64-7.64h57.714v11.425c0 7.466 6.05 13.541 13.485 13.541h136.429c7.436 0 13.486-6.074 13.486-13.541v-11.425h57.713c4.213 0 7.64 3.427 7.64 7.64v236.58c-1.326-.056-2.657-.091-3.997-.091-51.526 0-93.445 41.919-93.445 93.444 0 32.855 17.047 61.801 42.758 78.467h-231.783c-4.213 0-7.64-3.428-7.64-7.641v-290.143c0-4.136-3.352-7.489-7.489-7.489-4.136 0-7.489 3.353-7.489 7.489v290.144c0 12.472 10.146 22.618 22.618 22.618h282.47c22.582 0 44.381-8.164 61.382-22.987 3.117-2.718 3.441-7.448.724-10.566-2.719-3.118-7.45-3.441-10.566-.723-14.274 12.445-32.578 19.298-51.54 19.298-43.267 0-78.467-35.2-78.467-78.467s35.2-78.467 78.467-78.467 78.466 35.2 78.466 78.467c0 11.866-2.579 23.263-7.667 33.875-1.788 3.73-.214 8.203 3.515 9.99 3.728 1.785 8.202.215 9.99-3.516 6.064-12.65 9.139-26.226 9.139-40.35.001-45.024-32.01-82.712-74.469-91.505zm-95.308-236.079h-133.445v-34.955h36.876c4.136 0 7.489-3.353 7.489-7.489v-10.914c0-12.481 10.029-22.635 22.357-22.635s22.358 10.154 22.358 22.635v10.914c0 4.136 3.352 7.489 7.489 7.489h36.876z"/><path d="m109.431 168.654h22.258c4.136 0 7.489-3.353 7.489-7.489s-3.353-7.489-7.489-7.489h-22.258c-4.136 0-7.489 3.353-7.489 7.489s3.353 7.489 7.489 7.489z"/><path d="m174.269 168.654h153.831c4.136 0 7.489-3.353 7.489-7.489s-3.352-7.489-7.489-7.489h-153.83c-4.136 0-7.489 3.353-7.489 7.489-.001 4.136 3.352 7.489 7.488 7.489z"/><path d="m109.431 208.745h22.258c4.136 0 7.489-3.353 7.489-7.489s-3.353-7.489-7.489-7.489h-22.258c-4.136 0-7.489 3.353-7.489 7.489s3.353 7.489 7.489 7.489z"/><path d="m174.269 208.745h153.831c4.136 0 7.489-3.353 7.489-7.489s-3.352-7.489-7.489-7.489h-153.83c-4.136 0-7.489 3.353-7.489 7.489s3.352 7.489 7.488 7.489z"/><path d="m109.431 248.837h22.258c4.136 0 7.489-3.353 7.489-7.489s-3.353-7.489-7.489-7.489h-22.258c-4.136 0-7.489 3.353-7.489 7.489s3.353 7.489 7.489 7.489z"/><path d="m174.269 248.837h153.831c4.136 0 7.489-3.353 7.489-7.489s-3.352-7.489-7.489-7.489h-153.83c-4.136 0-7.489 3.353-7.489 7.489s3.352 7.489 7.488 7.489z"/><path d="m109.431 288.928h22.258c4.136 0 7.489-3.353 7.489-7.489s-3.353-7.489-7.489-7.489h-22.258c-4.136 0-7.489 3.353-7.489 7.489s3.353 7.489 7.489 7.489z"/><path d="m174.269 288.928h153.831c4.136 0 7.489-3.353 7.489-7.489s-3.352-7.489-7.489-7.489h-153.83c-4.136 0-7.489 3.353-7.489 7.489s3.352 7.489 7.488 7.489z"/><path d="m109.431 369.111h22.258c4.136 0 7.489-3.353 7.489-7.489s-3.353-7.489-7.489-7.489h-22.258c-4.136 0-7.489 3.353-7.489 7.489s3.353 7.489 7.489 7.489z"/><path d="m174.269 369.111h82.721c4.136 0 7.489-3.353 7.489-7.489s-3.352-7.489-7.489-7.489h-82.721c-4.136 0-7.489 3.353-7.489 7.489s3.353 7.489 7.489 7.489z"/><path d="m109.431 409.203h22.258c4.136 0 7.489-3.353 7.489-7.489s-3.353-7.489-7.489-7.489h-22.258c-4.136 0-7.489 3.353-7.489 7.489s3.353 7.489 7.489 7.489z"/><path d="m174.269 409.203h61.683c4.136 0 7.489-3.353 7.489-7.489s-3.353-7.489-7.489-7.489h-61.683c-4.136 0-7.489 3.353-7.489 7.489s3.353 7.489 7.489 7.489z"/><path d="m109.431 449.295h22.258c4.136 0 7.489-3.353 7.489-7.489s-3.353-7.489-7.489-7.489h-22.258c-4.136 0-7.489 3.353-7.489 7.489s3.353 7.489 7.489 7.489z"/><path d="m174.269 449.295h54.658c4.136 0 7.489-3.353 7.489-7.489s-3.353-7.489-7.489-7.489h-54.658c-4.136 0-7.489 3.353-7.489 7.489s3.353 7.489 7.489 7.489z"/></g></g></g></svg>