<svg width="136" height="26" viewBox="0 0 136 26" fill="none" xmlns="http://www.w3.org/2000/svg">
<path d="M14.8196 17.3314L10.4958 21.8911L0.826172 12.0642L1.33748 6.48193L14.8196 17.3314Z" fill="#00AAFF"/>
<path d="M15.2378 17.3314L19.5616 21.8911L29.2313 12.0642L28.7199 6.48193L15.2378 17.3314Z" fill="#00AAFF"/>
<path d="M2.39795 6.19488L5.38531 8.9203C5.38531 8.9203 19.169 7.08575 24.5674 8.9203L27.712 6.19488C27.712 6.19488 15.1861 1.5827 2.39795 6.19488Z" fill="#00AAFF"/>
<path fill-rule="evenodd" clip-rule="evenodd" d="M32.0985 5.62741C32.0668 4.77837 33.1992 2.57684 36.7211 1.60201C41.344 0.312729 46.9105 1.09888 48.986 3.07998C51.03 5.02995 50.0237 7.35695 48.5457 8.61479C46.5958 10.2817 44.426 11.3823 42.1933 12.0113C44.5518 11.7283 48.074 12.3257 49.0174 14.0553C49.9294 15.7219 49.7092 17.9863 46.187 20.9108C42.3506 24.0875 36.6268 25.5651 33.891 25.3453C31.4696 25.156 29.2366 22.0746 30.0857 20.9108C30.5574 20.3136 31.6894 19.7473 33.0734 19.3382C32.979 19.1501 32.979 18.9611 33.0419 18.7725C33.5451 17.2002 34.4884 14.81 35.7463 12.2625C36.6897 10.0613 39.3 4.46391 40.4006 2.51395C36.5324 3.14287 33.3564 5.28151 33.3564 6.60224C33.1992 6.94815 32.13 6.60224 32.0985 5.62741ZM35.9664 18.7725C37.3815 18.6152 38.6711 18.6781 39.3629 18.9611C40.0861 19.2756 39.866 19.7158 39.6773 19.7791C37.6334 19.5272 31.1234 22.0432 32.0985 23.0812C32.7589 23.7727 39.7717 22.5774 43.6084 19.3074C46.5958 16.7596 47.036 14.3383 45.0864 13.5207C42.7591 12.483 40.0547 12.8918 38.4195 13.2062C38.4195 13.2377 38.3881 13.2691 38.3881 13.3002L35.9664 18.7725ZM39.1742 11.5396C39.7402 11.4138 40.432 11.1937 41.3125 10.9107C45.0549 9.68426 47.0678 6.82236 46.8788 4.90384C46.7215 3.52054 45.4952 2.48251 43.0424 2.35672C43.3883 2.70263 43.6398 3.11142 43.6084 3.42588C42.8851 3.646 41.2811 6.9167 39.1742 11.5396Z" fill="#00AAFF"/>
<path d="M54.488 12.6406C52.3182 16.9802 50.4315 21.6034 52.0666 21.4462C53.2616 21.3201 55.2113 18.8044 56.438 17.1063C56.7839 16.9802 57.1298 17.2947 57.0669 17.6091C56.9411 18.3324 55.6518 21.8864 53.7333 22.704C52.3182 23.3015 49.1419 21.7917 48.8903 20.0622C48.7016 18.5214 49.4878 15.9113 52.2868 10.6281C54.1421 7.13729 55.5257 4.65306 56.092 3.3949C56.9725 2.57731 58.7021 3.58358 58.5134 4.58985C58.3247 5.53354 58.1046 5.5021 54.488 12.6406Z" fill="#00AAFF"/>
<path d="M58.5125 20.7853C59.5188 20.9425 66.8778 11.6653 67.035 11.1619C67.5381 10.6587 69.9595 11.3823 69.362 12.5144C68.6702 13.5521 65.085 20.5334 66.1542 20.8796C66.9407 21.1312 71.406 15.9105 72.444 14.2757C72.9786 13.7093 73.3874 14.181 73.1987 14.8099C72.5069 16.0363 68.9218 21.6029 67.1293 22.0114C65.4627 22.389 63.7014 21.068 63.4499 19.9992C63.1668 18.7728 63.67 17.6086 63.8587 17.0429C63.5127 17.5146 61.4373 20.7224 59.2358 21.9174C57.915 22.6403 55.4934 21.3196 55.7453 19.5275C56.2169 16.414 60.3678 11.0993 60.431 10.2185C60.871 9.58959 63.1668 10.6276 62.9467 11.5081C62.7266 12.4197 57.3805 20.5963 58.5125 20.7853Z" fill="#00AAFF"/>
<path fill-rule="evenodd" clip-rule="evenodd" d="M73.9215 17.7034C73.7643 18.2068 73.4184 18.8358 73.4184 19.276C73.3555 20.5338 74.1105 21.2257 74.8967 21.1945C76.1227 21.1316 78.4815 19.0873 79.7711 17.4207C80.1167 17.0433 80.4311 17.3578 80.4626 17.7352C79.8651 19.465 78.1042 21.5719 76.9406 22.1691C74.9592 23.1756 71.9719 21.7291 71.1543 19.559C69.9276 16.3201 73.607 10.9111 76.28 9.71612C78.6073 8.67809 81.5006 11.0051 81.123 12.7349C80.777 14.3387 76.469 16.6346 73.9215 17.7034ZM74.6133 16.1C76.3117 15.0305 78.1042 13.4579 78.9217 12.389C79.8022 11.257 79.1104 10.7538 77.9469 11.7912C76.9406 12.7035 75.5256 14.3704 74.6133 16.1Z" fill="#00AAFF"/>
<path d="M86.5941 11.6661C82.5369 18.7414 83.4489 23.7108 86.3107 23.6479C90.0531 23.5844 95.7449 16.8864 97.6948 14.1503C98.2294 13.5846 98.8269 14.0563 98.5124 14.6531C97.6316 16.5402 92.9776 22.7671 89.6758 24.4649C87.1283 25.7856 84.1406 24.7171 82.5055 23.3017C80.5869 21.6347 79.7379 18.1754 82.6001 12.4204C85.9651 5.62811 91.311 1.50806 93.5122 1.31969C95.2103 1.16246 99.6445 3.17532 98.7011 5.09352C97.5376 7.32588 95.9338 8.36422 95.1792 8.99314C94.487 9.55886 93.4807 9.33905 94.0785 8.52146C94.7075 7.60921 97.1917 3.80424 96.531 3.17532C94.6131 1.35083 88.7635 7.89254 86.5941 11.6661Z" fill="#00AAFF"/>
<path d="M101.09 12.6406C98.9199 16.9802 97.3159 21.8235 98.8571 21.1003C100.178 20.4713 103.826 15.8485 104.958 14.1189C105.43 13.3954 106.121 14.0243 105.776 14.6217C104.832 16.383 101.341 21.6034 99.4234 22.4207C98.008 23.0185 95.7436 21.7917 95.4923 20.0622C95.3036 18.5214 96.0898 15.9113 98.8885 10.6281C100.744 7.13729 102.128 4.65306 102.694 3.3949C103.574 2.57731 105.304 3.58358 105.115 4.58985C104.927 5.53354 103.417 8.01778 101.09 12.6406Z" fill="#00AAFF"/>
<path fill-rule="evenodd" clip-rule="evenodd" d="M106.372 17.7034C106.215 18.2068 106.089 18.6468 106.089 19.0873C106.058 19.9678 106.247 20.943 107.284 21.0373C110.083 21.2889 113.951 15.8795 115.335 14.15C115.681 13.7727 116.562 13.7727 116.279 14.4645C115.272 16.4773 112.442 20.5967 109.737 21.9807C107.536 23.1124 104.422 21.7291 103.605 19.559C102.378 16.3201 106.058 10.9111 108.731 9.71612C111.058 8.67809 113.951 11.0051 113.574 12.7349C113.228 14.3387 108.92 16.6346 106.372 17.7034ZM107.064 16.1C108.762 15.0305 110.555 13.4579 111.373 12.389C112.253 11.257 111.561 10.7538 110.398 11.7912C109.392 12.7035 107.976 14.3704 107.064 16.1Z" fill="#00AAFF"/>
<path d="M117.567 15.9427C115.932 18.0178 114.736 21.4772 114.673 21.7605C113.919 22.3894 111.623 21.4146 112.001 20.5338C112.692 19.0241 115.994 11.4456 116.655 10.4393C117.095 9.77865 119.233 10.2189 119.296 10.9739C118.73 12.0745 118.07 13.4578 117.881 13.8987C119.485 12.1057 121.623 9.90444 123.385 10.0934C124.831 10.2507 124.831 11.823 123.793 12.0116C121.907 11.5085 119.737 13.0808 117.567 15.9427Z" fill="#00AAFF"/>
<path d="M120.522 21.8863C120.554 21.1001 123.447 14.276 125.743 9.77896C128.196 4.96709 129.359 2.54574 129.8 2.01117C130.649 0.973445 132.913 1.63381 132.85 2.41996C132.472 2.76556 130.711 5.91047 128.384 10.5651C127.912 11.5399 127.315 12.7663 126.718 14.087C128.95 12.2629 131.906 10.1874 133.101 10.1249C133.825 10.0934 134.014 11.4141 133.573 11.6025C132.85 11.5714 129.768 13.3952 127.315 15.1877C127.881 16.5716 131.089 20.5338 132.756 21.1001C134.045 21.5718 134.548 20.9744 134.957 20.5338C135.366 20.0939 135.995 20.3766 135.617 20.9429C134.611 22.4835 133.573 23.3014 132.472 23.2696C131.278 23.2388 129.17 22.1061 127.063 19.5593C126.246 18.5845 125.711 17.4206 125.523 16.7288C124.233 19.6851 123.101 22.3894 123.101 22.7668C122.472 23.396 120.491 22.9551 120.522 21.8863Z" fill="#00AAFF"/>
</svg>
