<svg width="163" height="53" viewBox="0 0 163 53" fill="none" xmlns="http://www.w3.org/2000/svg">
<path d="M27.8194 31.3314L23.4956 35.8911L13.8259 26.0642L14.3372 20.4819L27.8194 31.3314Z" fill="#00AAFF"/>
<path d="M28.238 31.3314L32.5619 35.8911L42.2315 26.0642L41.7202 20.4819L28.238 31.3314Z" fill="#00AAFF"/>
<mask id="mask0" mask-type="alpha" maskUnits="userSpaceOnUse" x="0" y="0" width="163" height="53">
<rect width="163" height="53" fill="black"/>
</mask>
<g mask="url(#mask0)">
<path d="M15.3979 20.1949L18.3853 22.9203C18.3853 22.9203 32.169 21.0857 37.5674 22.9203L40.712 20.1949C40.712 20.1949 28.1861 15.5827 15.3979 20.1949Z" fill="#00AAFF"/>
<path fill-rule="evenodd" clip-rule="evenodd" d="M45.0988 19.6274C45.067 18.7784 46.1994 16.5768 49.7213 15.602C54.3442 14.3127 59.9108 15.0989 61.9862 17.08C64.0302 19.0299 63.0239 21.3569 61.546 22.6148C59.596 24.2817 57.4262 25.3823 55.1936 26.0113C57.552 25.7283 61.0743 26.3257 62.0176 28.0553C62.9296 29.7219 62.7095 31.9863 59.1872 34.9108C55.3508 38.0875 49.627 39.5651 46.8912 39.3453C44.4699 39.156 42.2369 36.0746 43.0859 34.9108C43.5576 34.3136 44.6897 33.7473 46.0736 33.3382C45.9793 33.1501 45.9793 32.9611 46.0422 32.7725C46.5453 31.2002 47.4887 28.81 48.7465 26.2625C49.6899 24.0613 52.3002 18.4639 53.4008 16.5139C49.5327 17.1429 46.3566 19.2815 46.3566 20.6022C46.1994 20.9481 45.1302 20.6022 45.0988 19.6274ZM48.9666 32.7725C50.3817 32.6152 51.6713 32.6781 52.3631 32.9611C53.0864 33.2756 52.8663 33.7158 52.6776 33.7791C50.6336 33.5272 44.1236 36.0432 45.0988 37.0812C45.7592 37.7727 52.7719 36.5774 56.6087 33.3074C59.596 30.7596 60.0363 28.3383 58.0866 27.5207C55.7593 26.483 53.0549 26.8918 51.4197 27.2062C51.4197 27.2377 51.3883 27.2691 51.3883 27.3002L48.9666 32.7725ZM52.1744 25.5396C52.7405 25.4138 53.4323 25.1937 54.3128 24.9107C58.0552 23.6843 60.068 20.8224 59.879 18.9038C59.7218 17.5205 58.4954 16.4825 56.0426 16.3567C56.3885 16.7026 56.6401 17.1114 56.6087 17.4259C55.8854 17.646 54.2813 20.9167 52.1744 25.5396Z" fill="#00AAFF"/>
<path d="M67.4882 26.6406C65.3185 30.9802 63.4317 35.6034 65.0669 35.4462C66.2618 35.3201 68.2115 32.8044 69.4382 31.1063C69.7841 30.9802 70.13 31.2947 70.0671 31.6091C69.9413 32.3324 68.6521 35.8864 66.7335 36.704C65.3185 37.3015 62.1421 35.7917 61.8905 34.0622C61.7019 32.5214 62.488 29.9113 65.287 24.6281C67.1423 21.1373 68.5259 18.6531 69.0923 17.3949C69.9728 16.5773 71.7023 17.5836 71.5136 18.5899C71.325 19.5335 71.1049 19.5021 67.4882 26.6406Z" fill="#00AAFF"/>
<path d="M71.5125 34.7853C72.5188 34.9425 79.8778 25.6653 80.035 25.1619C80.5381 24.6587 82.9595 25.3823 82.362 26.5144C81.6702 27.5521 78.085 34.5334 79.1542 34.8796C79.9407 35.1312 84.406 29.9105 85.444 28.2757C85.9786 27.7093 86.3874 28.181 86.1987 28.8099C85.5069 30.0363 81.9218 35.6029 80.1293 36.0114C78.4627 36.389 76.7014 35.068 76.4499 33.9992C76.1668 32.7728 76.67 31.6086 76.8587 31.0429C76.5127 31.5146 74.4373 34.7224 72.2358 35.9174C70.915 36.6403 68.4934 35.3196 68.7453 33.5275C69.2169 30.414 73.3678 25.0993 73.431 24.2185C73.871 23.5896 76.1668 24.6276 75.9467 25.5081C75.7266 26.4197 70.3805 34.5963 71.5125 34.7853Z" fill="#00AAFF"/>
<path fill-rule="evenodd" clip-rule="evenodd" d="M86.9213 31.7034C86.7641 32.2068 86.4181 32.8358 86.4181 33.276C86.3553 34.5338 87.1103 35.2257 87.8964 35.1945C89.1225 35.1316 91.4813 33.0873 92.7708 31.4207C93.1165 31.0433 93.4309 31.3578 93.4623 31.7352C92.8649 33.465 91.1039 35.5719 89.9404 36.1691C87.959 37.1756 84.9716 35.7291 84.154 33.559C82.9273 30.3201 86.6068 24.9111 89.2797 23.7161C91.607 22.6781 94.5004 25.0051 94.1227 26.7349C93.7768 28.3387 89.4687 30.6346 86.9213 31.7034ZM87.6131 30.1C89.3115 29.0305 91.1039 27.4579 91.9215 26.389C92.802 25.257 92.1102 24.7538 90.9467 25.7912C89.9404 26.7035 88.5253 28.3704 87.6131 30.1Z" fill="#00AAFF"/>
<path d="M99.5941 25.6661C95.5369 32.7414 96.4489 37.7108 99.3107 37.6479C103.053 37.5844 108.745 30.8864 110.695 28.1503C111.229 27.5846 111.827 28.0563 111.512 28.6531C110.632 30.5402 105.978 36.7671 102.676 38.4649C100.128 39.7856 97.1406 38.7171 95.5055 37.3017C93.5869 35.6347 92.7379 32.1754 95.6001 26.4204C98.9651 19.6281 104.311 15.5081 106.512 15.3197C108.21 15.1625 112.644 17.1753 111.701 19.0935C110.538 21.3259 108.934 22.3642 108.179 22.9931C107.487 23.5589 106.481 23.339 107.079 22.5215C107.707 21.6092 110.192 17.8042 109.531 17.1753C107.613 15.3508 101.764 21.8925 99.5941 25.6661Z" fill="#00AAFF"/>
<path d="M114.09 26.6406C111.92 30.9802 110.316 35.8235 111.857 35.1003C113.178 34.4713 116.826 29.8485 117.958 28.1189C118.43 27.3954 119.122 28.0243 118.776 28.6217C117.832 30.383 114.342 35.6034 112.424 36.4207C111.008 37.0185 108.744 35.7917 108.493 34.0622C108.304 32.5214 109.09 29.9113 111.889 24.6281C113.744 21.1373 115.128 18.6531 115.694 17.3949C116.575 16.5773 118.304 17.5836 118.115 18.5899C117.927 19.5335 116.417 22.0178 114.09 26.6406Z" fill="#00AAFF"/>
<path fill-rule="evenodd" clip-rule="evenodd" d="M119.373 31.7034C119.215 32.2068 119.09 32.6468 119.09 33.0873C119.058 33.9678 119.247 34.943 120.285 35.0373C123.083 35.2889 126.951 29.8795 128.335 28.15C128.681 27.7727 129.562 27.7727 129.279 28.4645C128.272 30.4773 125.442 34.5967 122.737 35.9807C120.536 37.1124 117.423 35.7291 116.605 33.559C115.379 30.3201 119.058 24.9111 121.731 23.7161C124.058 22.6781 126.951 25.0051 126.574 26.7349C126.228 28.3387 121.92 30.6346 119.373 31.7034ZM120.064 30.1C121.763 29.0305 123.555 27.4579 124.373 26.389C125.253 25.257 124.562 24.7538 123.398 25.7912C122.392 26.7035 120.976 28.3704 120.064 30.1Z" fill="#00AAFF"/>
<path d="M130.567 29.9427C128.932 32.0178 127.736 35.4772 127.673 35.7605C126.919 36.3894 124.623 35.4146 125.001 34.5338C125.692 33.0241 128.994 25.4456 129.655 24.4393C130.095 23.7787 132.233 24.2189 132.296 24.9739C131.73 26.0745 131.07 27.4578 130.881 27.8987C132.485 26.1057 134.623 23.9044 136.385 24.0934C137.831 24.2507 137.831 25.823 136.793 26.0116C134.907 25.5085 132.737 27.0808 130.567 29.9427Z" fill="#00AAFF"/>
<path d="M133.522 35.8863C133.554 35.1001 136.447 28.276 138.743 23.779C141.196 18.9671 142.359 16.5457 142.8 16.0112C143.649 14.9734 145.913 15.6338 145.85 16.42C145.472 16.7656 143.711 19.9105 141.384 24.5651C140.912 25.5399 140.315 26.7663 139.718 28.087C141.95 26.2629 144.906 24.1874 146.101 24.1249C146.825 24.0934 147.014 25.4141 146.573 25.6025C145.85 25.5714 142.768 27.3952 140.315 29.1877C140.881 30.5716 144.089 34.5338 145.756 35.1001C147.045 35.5718 147.548 34.9744 147.957 34.5338C148.366 34.0939 148.995 34.3766 148.617 34.9429C147.611 36.4835 146.573 37.3014 145.472 37.2696C144.278 37.2388 142.17 36.1061 140.063 33.5593C139.246 32.5845 138.711 31.4206 138.523 30.7288C137.233 33.6851 136.101 36.3894 136.101 36.7668C135.472 37.396 133.491 36.9551 133.522 35.8863Z" fill="#00AAFF"/>
</g>
</svg>
