<svg width="20" height="20" viewBox="10 10 20 20" fill="none" xmlns="http://www.w3.org/2000/svg">
<circle cx="20" cy="20" r="10" fill="#2477FF"/>
<mask id="mask0_10441_308283" style="mask-type:alpha" maskUnits="userSpaceOnUse" x="12" y="12" width="16" height="16">
<path d="M20 27.5C24.1421 27.5 27.5 24.1421 27.5 20C27.5 15.8579 24.1421 12.5 20 12.5C15.8579 12.5 12.5 15.8579 12.5 20C12.5 24.1421 15.8579 27.5 20 27.5Z" fill="white"/>
</mask>
<g mask="url(#mask0_10441_308283)">
<path d="M24.5 18.5005V16.21C24.5 15.2645 23.8245 14.5 23 14.5H17C16.175 14.5 15.5 15.2645 15.5 16.21V18.65C16.3245 18.65 17 19.324 17 20.15C17 20.9755 16.3245 21.6495 15.5 21.6495V23.789C15.5 24.7355 16.1755 25.5 17 25.5H23C23.8245 25.5 24.5 24.7355 24.5 23.789V21.5C23.6755 21.5 23 20.823 23 20.0005C23 19.1745 23.6755 18.5005 24.5 18.5005ZM20.75 23.75H19.25V22.25H20.75V23.75ZM20.75 20.75H19.25V19.2505H20.75V20.75ZM20.75 17.7505H19.25V16.25H20.75V17.7505Z" fill="white"/>
</g>
</svg>
