<svg width="20" height="20" viewBox="0 0 20 20" fill="none" xmlns="http://www.w3.org/2000/svg">
<circle cx="10" cy="10" r="10" fill="#A107FF"/>
<mask id="mask0_705:430544" style="mask-type:alpha" maskUnits="userSpaceOnUse" x="2" y="2" width="16" height="16">
<path d="M10.0005 17.5C14.1426 17.5 17.5005 14.1421 17.5005 10C17.5005 5.85786 14.1426 2.5 10.0005 2.5C5.85835 2.5 2.50049 5.85786 2.50049 10C2.50049 14.1421 5.85835 17.5 10.0005 17.5Z" fill="white"/>
</mask>
<g mask="url(#mask0_705:430544)">
<path d="M13.6773 7.38178L13.854 7.205L13.6773 7.02822L12.9723 6.32322L12.7955 6.14645L12.6187 6.32322L10.0005 8.94145L7.38226 6.32322L7.20549 6.14645L7.02871 6.32322L6.32371 7.02822L6.14693 7.205L6.32371 7.38178L8.94194 10L6.32371 12.6182L6.14693 12.795L6.32371 12.9718L7.02871 13.6768L7.20549 13.8536L7.38226 13.6768L10.0005 11.0586L12.6187 13.6768L12.7955 13.8536L12.9723 13.6768L13.6773 12.9718L13.854 12.795L13.6773 12.6182L11.059 10L13.6773 7.38178Z" fill="white" stroke="white" stroke-width="0.5"/>
</g>
</svg>
