<svg width="20" height="20" viewBox="0 0 20 20" fill="none" xmlns="http://www.w3.org/2000/svg">
<circle cx="10" cy="10" r="10" fill="#F50057"/>
<mask id="mask0_705:430758" style="mask-type:alpha" maskUnits="userSpaceOnUse" x="2" y="2" width="16" height="16">
<path d="M10.0005 17.5C14.1426 17.5 17.5005 14.1421 17.5005 10C17.5005 5.85786 14.1426 2.5 10.0005 2.5C5.85835 2.5 2.50049 5.85786 2.50049 10C2.50049 14.1421 5.85835 17.5 10.0005 17.5Z" fill="white"/>
</mask>
<g mask="url(#mask0_705:430758)">
<path d="M10.001 14.5C10.5533 14.5 11.001 14.0523 11.001 13.5C11.001 12.9477 10.5533 12.5 10.001 12.5C9.44869 12.5 9.00098 12.9477 9.00098 13.5C9.00098 14.0523 9.44869 14.5 10.001 14.5Z" fill="white"/>
<path d="M9.00098 5.5H11.001V11.5H9.00098V5.5Z" fill="white"/>
</g>
</svg>
