<svg width="20" height="20" viewBox="10 10 20 20" fill="none" xmlns="http://www.w3.org/2000/svg">
<circle cx="20" cy="20" r="10" fill="#970505"/>
<mask id="mask0_10441_308249" style="mask-type:alpha" maskUnits="userSpaceOnUse" x="12" y="12" width="16" height="16">
<path d="M20 27.5C24.1421 27.5 27.5 24.1421 27.5 20C27.5 15.8579 24.1421 12.5 20 12.5C15.8579 12.5 12.5 15.8579 12.5 20C12.5 24.1421 15.8579 27.5 20 27.5Z" fill="white"/>
</mask>
<g mask="url(#mask0_10441_308249)">
<path d="M22.6366 19.3094L21.7481 18.4209L19.4861 20.6814L18.5956 19.7914L17.7031 20.6779L19.4856 22.4604L22.6366 19.3094Z" fill="white"/>
<path d="M24.5906 16.251C24.5891 15.4945 24.0766 14.98 23.3156 14.9705C22.9791 14.9665 22.6741 14.963 22.2911 14.969C22.2431 14.6045 21.9886 14.389 21.5486 14.3715C21.4771 14.3675 21.4236 14.3635 21.3181 14.374C21.3176 14.373 21.3171 14.372 21.3166 14.371C21.1326 13.853 20.6356 13.511 20.0451 13.5C19.4711 13.5 18.9686 13.839 18.7951 14.3435C18.7791 14.389 18.7621 14.377 18.7621 14.377C18.6831 14.367 18.6331 14.368 18.4996 14.376C18.1051 14.3955 17.8661 14.5955 17.8146 14.9705C17.6696 14.967 17.5251 14.966 17.3806 14.966L16.7936 14.97C16.0211 14.978 15.5021 15.4985 15.5016 16.2655C15.4996 18.902 15.4991 21.5385 15.5021 24.175C15.5026 24.991 16.0121 25.4985 16.8311 25.499L19.6646 25.5L23.2356 25.4985C24.1096 25.498 24.5911 25.015 24.5916 24.1385L24.5921 19.054C24.5926 18.1195 24.5931 17.1855 24.5906 16.251ZM16.7661 16.2385C16.7826 16.235 16.8156 16.23 16.8781 16.2295L17.0341 16.229L17.5216 16.2305C17.6166 16.2305 17.7121 16.23 17.8176 16.2285C17.8691 16.693 18.0886 16.8685 18.5971 16.8685H19.4211C20.1126 16.8685 20.8046 16.8685 21.4951 16.8665C22.0001 16.8655 22.2321 16.689 22.2896 16.229C22.3916 16.2305 22.4946 16.231 22.5966 16.231L23.1181 16.2295H23.2351C23.2886 16.2295 23.3171 16.234 23.3276 16.232C23.3311 16.246 23.3351 16.274 23.3351 16.3255C23.3366 17.3025 23.3366 18.279 23.3361 19.2555L23.3376 24.1205C23.3376 24.1965 23.3286 24.2285 23.3311 24.233C23.3206 24.2365 23.2891 24.245 23.2146 24.245L20.8571 24.2455L16.8786 24.245C16.8186 24.245 16.7876 24.239 16.7781 24.239C16.7766 24.239 16.7761 24.239 16.7756 24.239C16.7716 24.2285 16.7646 24.199 16.7646 24.1325C16.7636 21.534 16.7636 18.935 16.7651 16.3375C16.7651 16.2795 16.7686 16.248 16.7661 16.2385Z" fill="white"/>
<path d="M20.0475 14.8978C20.1665 14.8978 20.263 14.8013 20.263 14.6823C20.263 14.5633 20.1665 14.4668 20.0475 14.4668C19.9285 14.4668 19.832 14.5633 19.832 14.6823C19.832 14.8013 19.9285 14.8978 20.0475 14.8978Z" fill="white"/>
</g>
</svg>
