<svg width="20" height="20" viewBox="0 0 20 20" fill="none" xmlns="http://www.w3.org/2000/svg">
<circle cx="10" cy="10" r="10" fill="#F50057"/>
<mask id="mask0" style="mask-type:alpha" maskUnits="userSpaceOnUse" x="2" y="2" width="16" height="16">
<path d="M10 17.5C14.1421 17.5 17.5 14.1421 17.5 10C17.5 5.85786 14.1421 2.5 10 2.5C5.85786 2.5 2.5 5.85786 2.5 10C2.5 14.1421 5.85786 17.5 10 17.5Z" fill="white"/>
</mask>
<g mask="url(#mask0)">
<path d="M13.6768 7.38178L13.8536 7.205L13.6768 7.02822L12.9718 6.32322L12.795 6.14645L12.6182 6.32322L10 8.94145L7.38178 6.32322L7.205 6.14645L7.02822 6.32322L6.32322 7.02822L6.14645 7.205L6.32322 7.38178L8.94145 10L6.32322 12.6182L6.14645 12.795L6.32322 12.9718L7.02822 13.6768L7.205 13.8536L7.38178 13.6768L10 11.0586L12.6182 13.6768L12.795 13.8536L12.9718 13.6768L13.6768 12.9718L13.8536 12.795L13.6768 12.6182L11.0586 10L13.6768 7.38178Z" fill="white" stroke="white" stroke-width="0.5"/>
</g>
</svg>
