<svg width="20" height="20" viewBox="0 0 20 20" fill="none" xmlns="http://www.w3.org/2000/svg">
<path d="M4.16602 6.66797H5.83268V13.3346H4.16602V6.66797ZM9.99935 6.66797H7.49935C7.04102 6.66797 6.66602 7.04297 6.66602 7.5013V12.5013C6.66602 12.9596 7.04102 13.3346 7.49935 13.3346H9.99935C10.4577 13.3346 10.8327 12.9596 10.8327 12.5013V7.5013C10.8327 7.04297 10.4577 6.66797 9.99935 6.66797ZM9.16602 11.668H8.33268V8.33464H9.16602V11.668ZM14.9993 6.66797H12.4993C12.041 6.66797 11.666 7.04297 11.666 7.5013V12.5013C11.666 12.9596 12.041 13.3346 12.4993 13.3346H14.9993C15.4577 13.3346 15.8327 12.9596 15.8327 12.5013V7.5013C15.8327 7.04297 15.4577 6.66797 14.9993 6.66797ZM14.166 11.668H13.3327V8.33464H14.166V11.668Z" fill="#4F4F4F"/>
<path d="M1.66602 3.33203V16.6654H18.3327V3.33203H1.66602ZM3.33268 14.9987V4.9987H16.666V14.9987H3.33268Z" fill="#4F4F4F"/>
</svg>