<svg width="20" height="20" viewBox="0 0 20 20" fill="none" xmlns="http://www.w3.org/2000/svg">
<path fill-rule="evenodd" clip-rule="evenodd" d="M14.4055 0C14.8008 0.0989186 15.2098 0.160958 15.5889 0.303059C17.4323 0.994187 18.6649 2.86156 18.4896 4.92301C18.3063 7.07838 16.7967 8.72927 14.7361 9.09207C12.3606 9.51035 9.99584 7.8576 9.56323 5.47667C9.14042 3.14914 10.4096 0.947983 12.6018 0.22758C12.9201 0.122932 13.2569 0.0744364 13.5852 0C13.8587 0 14.1321 0 14.4055 0ZM15.1053 3.57112C15.2207 3.26426 15.347 2.92865 15.4864 2.55787C15.2076 2.44452 14.9556 2.32487 14.6919 2.24231C14.5689 2.20382 14.5408 2.15272 14.5446 2.0413C14.5503 1.87497 14.5461 1.70834 14.5461 1.53045C14.3511 1.53045 14.1889 1.53045 14.0267 1.53045C13.8594 1.53045 13.6921 1.53045 13.5065 1.53045C13.5065 1.73996 13.4999 1.92738 13.509 2.11401C13.5146 2.22903 13.4761 2.28325 13.3668 2.32779C12.973 2.48828 12.696 2.76795 12.57 3.18071C12.364 3.85548 12.6491 4.46431 13.343 4.82368C13.5906 4.95192 13.85 5.05745 14.0979 5.18523C14.2642 5.27102 14.3866 5.40354 14.3264 5.60955C14.2671 5.81244 14.0911 5.85307 13.9077 5.86005C13.6045 5.87157 13.3353 5.75905 13.0769 5.61607C12.9721 5.55809 12.8724 5.49121 12.7577 5.42052C12.6486 5.72811 12.5562 6.01872 12.4411 6.30016C12.3856 6.43586 12.4209 6.51071 12.5375 6.56483C12.8349 6.70271 13.1339 6.83684 13.4712 6.99009C13.4712 7.16339 13.4712 7.38717 13.4712 7.60902C13.8245 7.60902 14.1542 7.60902 14.5058 7.60902C14.5058 7.41942 14.5157 7.23788 14.5026 7.05796C14.492 6.91123 14.5478 6.84726 14.6817 6.78736C15.7194 6.32287 15.8613 4.9688 14.9371 4.30679C14.7127 4.14609 14.4457 4.04524 14.199 3.91559C14.0728 3.84928 13.9355 3.79547 13.8274 3.70666C13.7642 3.65473 13.7068 3.53544 13.7231 3.46387C13.7397 3.39084 13.8408 3.31552 13.9215 3.28452C14.0072 3.25166 14.12 3.24426 14.2077 3.27015C14.5034 3.35766 14.7933 3.46481 15.1053 3.57112Z" fill="#4F4F4F"/>
<path fill-rule="evenodd" clip-rule="evenodd" d="M2.29544 19.9982C2.27575 19.9306 2.26127 19.8609 2.23549 19.7957C1.51607 17.9773 0.795412 16.1593 0.075374 14.3411C0.0495374 14.2758 0.0279202 14.2088 0 14.1303C0.615858 13.7919 1.22406 13.4576 1.85784 13.1094C2.63267 15.0656 3.40376 17.0121 4.17948 18.9706C3.55826 19.3166 2.94636 19.6573 2.33456 19.9981C2.32149 19.9982 2.30847 19.9982 2.29544 19.9982Z" fill="#4F4F4F"/>
<path fill-rule="evenodd" clip-rule="evenodd" d="M7.49545 17.9115C6.6753 17.9115 5.85509 17.9081 5.03499 17.9149C4.8944 17.916 4.83335 17.8686 4.78277 17.7396C4.26078 16.4088 3.72982 15.0815 3.20934 13.7502C3.17673 13.6667 3.18137 13.544 3.21835 13.462C3.58481 12.6496 4.08653 11.9481 4.90351 11.5306C5.65131 11.1483 6.4225 11.1169 7.2075 11.4161C7.57723 11.557 7.96035 11.6006 8.35561 11.6008C9.25375 11.6012 10.1519 11.6188 11.0501 11.6301C11.3395 11.6337 11.5201 11.7353 11.5859 12.0143C11.6376 12.2338 11.6478 12.4792 11.6071 12.7003C11.5489 13.0166 11.3579 13.1357 11.0313 13.1364C10.3608 13.138 9.69031 13.1366 9.01986 13.1374C8.94839 13.1374 8.8762 13.1375 8.80572 13.1475C8.53907 13.1851 8.35144 13.3967 8.3541 13.6514C8.35686 13.9158 8.55814 14.1422 8.83395 14.1448C9.64739 14.1525 10.4611 14.1515 11.2744 14.1368C11.4305 14.134 11.5937 14.0722 11.7391 14.0058C12.9443 13.455 14.1482 12.9015 15.3477 12.3386C15.8496 12.1031 16.3486 11.8706 16.9094 11.8129C17.4749 11.7548 18.027 11.8095 18.5623 12.0022C18.8152 12.0932 18.9473 12.2897 18.9671 12.55C18.9923 12.8809 18.8087 13.1089 18.5439 13.2657C17.9845 13.5969 17.4164 13.9135 16.852 14.2363C14.9443 15.3275 13.0347 16.4154 11.1303 17.5124C10.6542 17.7867 10.1514 17.9184 9.60441 17.9132C8.90157 17.9065 8.19846 17.9115 7.49545 17.9115Z" fill="#4F4F4F"/>
</svg>