<svg width="20" height="20" viewBox="0 0 20 20" fill="none" xmlns="http://www.w3.org/2000/svg">
<path d="M15.834 11.6654V4.9987C15.834 4.08203 15.084 3.33203 14.1673 3.33203H2.50065C1.58398 3.33203 0.833984 4.08203 0.833984 4.9987V11.6654C0.833984 12.582 1.58398 13.332 2.50065 13.332H14.1673C15.084 13.332 15.834 12.582 15.834 11.6654ZM8.33398 10.832C6.95065 10.832 5.83398 9.71536 5.83398 8.33203C5.83398 6.9487 6.95065 5.83203 8.33398 5.83203C9.71732 5.83203 10.834 6.9487 10.834 8.33203C10.834 9.71536 9.71732 10.832 8.33398 10.832ZM19.1673 5.83203V14.9987C19.1673 15.9154 18.4173 16.6654 17.5006 16.6654H3.33398V14.9987H17.5006V5.83203H19.1673Z" fill="#4F4F4F"/>
</svg>