<?xml version="1.0" encoding="iso-8859-1"?>
<!-- Generator: Adobe Illustrator 19.0.0, SVG Export Plug-In . SVG Version: 6.00 Build 0)  -->
<svg version="1.1" id="Layer_1" xmlns="http://www.w3.org/2000/svg" xmlns:xlink="http://www.w3.org/1999/xlink" x="0px" y="0px"
	 viewBox="0 0 512 512" style="enable-background:new 0 0 512 512;" xml:space="preserve">
<g>
	<g>
		<path d="M94.205,167.261c-21.351,0-38.72,17.37-38.72,38.719c0,21.349,17.37,38.719,38.72,38.719
			c21.349,0,38.719-17.37,38.719-38.719C132.924,184.631,115.554,167.261,94.205,167.261z"/>
	</g>
</g>
<g>
	<g>
		<path d="M228.497,125.952c-22.387,0-40.601,18.213-40.601,40.601c0,22.388,18.213,40.602,40.601,40.602
			c22.387,0,40.601-18.214,40.601-40.602C269.098,144.165,250.884,125.952,228.497,125.952z"/>
	</g>
</g>
<g>
	<g>
		<path d="M389.955,84.599c-25.81,0-46.808,20.998-46.808,46.807c0,25.809,20.998,46.807,46.808,46.807
			c25.81,0,46.808-20.998,46.808-46.807C436.763,105.598,415.765,84.599,389.955,84.599z"/>
	</g>
</g>
<g>
	<g>
		<path d="M495.636,394.673h-5.483h-21.965l14.09-121.31c1.961-16.892-3.399-33.864-14.709-46.564
			c-11.31-12.7-27.549-19.983-44.556-19.983h-66.118c-17.005,0-33.246,7.284-44.556,19.983
			c-11.31,12.701-16.672,29.671-14.709,46.564l14.09,121.31h-21.965l-13.798-118.794c-1.118-9.624-0.471-19.261,1.756-28.492
			c-6.86-3.472-14.508-5.348-22.356-5.348h-53.723c-14.109,0-27.582,6.043-36.965,16.579c-9.383,10.536-13.831,24.616-12.203,38.631
			l11.316,97.424H141.82l-11.024-94.908c-0.976-8.408-0.415-16.826,1.526-24.892c-5.763-2.336-11.975-3.588-18.323-3.588H74.41
			c-13.915,0-27.204,5.96-36.458,16.351c-9.254,10.392-13.642,24.281-12.036,38.103l8.006,68.934H16.364
			C7.327,394.673,0,402,0,411.037s7.327,16.364,16.364,16.364h479.272c9.037,0,16.364-7.327,16.364-16.364
			S504.673,394.673,495.636,394.673z"/>
	</g>
</g>
<g>
</g>
<g>
</g>
<g>
</g>
<g>
</g>
<g>
</g>
<g>
</g>
<g>
</g>
<g>
</g>
<g>
</g>
<g>
</g>
<g>
</g>
<g>
</g>
<g>
</g>
<g>
</g>
<g>
</g>
</svg>
