<?xml version="1.0" encoding="iso-8859-1"?>
<!-- Generator: Adobe Illustrator 19.0.0, SVG Export Plug-In . SVG Version: 6.00 Build 0)  -->
<svg version="1.1" id="Layer_1" xmlns="http://www.w3.org/2000/svg" xmlns:xlink="http://www.w3.org/1999/xlink" x="0px" y="0px"
	 viewBox="0 0 512 512" style="enable-background:new 0 0 512 512;" xml:space="preserve">
<g>
	<g>
		<path d="M435.478,0H315.425H196.575H76.522c-9.22,0-16.696,7.475-16.696,16.696v478.609c0,9.22,7.475,16.696,16.696,16.696
			h358.957c9.22,0,16.696-7.475,16.696-16.696V16.696C452.174,7.475,444.699,0,435.478,0z M213.27,33.391h85.459v21.482H213.27
			V33.391z M351.722,408.133H160.278c-9.22,0-16.696-7.475-16.696-16.696s7.475-16.696,16.696-16.696h191.443
			c9.22,0,16.696,7.475,16.696,16.696S360.942,408.133,351.722,408.133z M351.722,300.133H160.278
			c-9.22,0-16.696-7.475-16.696-16.696s7.475-16.696,16.696-16.696h191.443c9.22,0,16.696,7.475,16.696,16.696
			S360.942,300.133,351.722,300.133z M351.722,192.135H160.278c-9.22,0-16.696-7.475-16.696-16.696s7.475-16.696,16.696-16.696
			h191.443c9.22,0,16.696,7.475,16.696,16.696S360.942,192.135,351.722,192.135z"/>
	</g>
</g>
<g>
</g>
<g>
</g>
<g>
</g>
<g>
</g>
<g>
</g>
<g>
</g>
<g>
</g>
<g>
</g>
<g>
</g>
<g>
</g>
<g>
</g>
<g>
</g>
<g>
</g>
<g>
</g>
<g>
</g>
</svg>
